<?xml version="1.0" standalone="no"?>
<!DOCTYPE svg PUBLIC "-//W3C//DTD SVG 20010904//EN"
 "http://www.w3.org/TR/2001/REC-SVG-20010904/DTD/svg10.dtd">
<svg version="1.0" xmlns="http://www.w3.org/2000/svg"
 width="1200.000000pt" height="1200.000000pt" viewBox="0 0 1200.000000 1200.000000"
 preserveAspectRatio="xMidYMid meet">

<g transform="translate(0.000000,1200.000000) scale(0.100000,-0.100000)"
fill="#000000" stroke="none">
<path d="M5016 8228 c-14 -20 -16 -143 -16 -1128 0 -871 3 -1110 13 -1130 l13
-25 969 -3 970 -2 18 21 c16 20 17 89 17 1133 0 990 -2 1114 -16 1134 l-15 22
-969 0 -969 0 -15 -22z m1864 -1133 l0 -1045 -880 0 -880 0 0 1045 0 1045 880
0 880 0 0 -1045z"/>
<path d="M5904 8011 c-83 -38 -143 -143 -131 -232 11 -85 162 -355 205 -365
12 -4 32 -4 45 0 42 10 193 280 204 365 8 57 -13 123 -55 172 -46 53 -101 79
-172 79 -32 0 -72 -8 -96 -19z m96 -271 c4 0 23 34 43 76 l35 76 18 -27 c28
-43 22 -86 -24 -177 -24 -46 -49 -92 -57 -102 -15 -20 -15 -20 -30 0 -8 10
-33 56 -57 102 -46 91 -52 134 -24 177 l18 27 35 -76 c20 -42 39 -76 43 -76z"/>
<path d="M5365 7491 c-123 -55 -162 -209 -78 -302 19 -21 40 -39 47 -39 6 0
22 20 34 44 l24 44 -22 29 c-27 37 -20 73 22 108 53 45 89 33 190 -63 l47 -45
44 34 45 34 -32 35 c-43 49 -118 108 -160 125 -48 20 -112 18 -161 -4z"/>
<path d="M6465 7491 c-22 -10 -73 -49 -113 -87 l-72 -69 45 -34 45 -33 61 57
c89 82 126 93 177 50 41 -34 49 -71 23 -106 l-21 -28 22 -46 c12 -25 27 -45
33 -45 17 0 72 61 84 93 24 64 1 157 -50 207 -61 58 -159 75 -234 41z"/>
<path d="M5738 7216 c-27 -11 -48 -23 -48 -27 0 -4 9 -28 20 -53 l19 -46 38
16 c21 9 44 18 51 21 14 6 9 30 -17 79 l-16 30 -47 -20z"/>
<path d="M6195 7191 c-11 -25 -21 -48 -23 -52 -1 -3 20 -15 48 -27 l50 -21 25
49 c28 55 30 51 -45 83 l-36 14 -19 -46z"/>
<path d="M5921 7110 c-28 -33 -62 -80 -77 -105 -14 -25 -29 -45 -34 -45 -4 0
-27 9 -51 19 -24 11 -95 30 -156 43 l-113 23 -22 -23 c-21 -20 -23 -32 -23
-125 0 -109 17 -182 61 -270 l23 -47 -84 -83 c-54 -52 -85 -90 -85 -103 0 -33
74 -118 142 -164 80 -53 153 -74 239 -68 81 6 140 33 209 95 l50 45 46 -42
c74 -68 143 -95 244 -95 72 0 94 4 143 27 109 51 216 161 204 210 -6 21 -107
130 -150 161 -17 12 -17 16 11 72 42 85 57 156 57 267 0 88 -3 100 -23 120
l-22 22 -112 -23 c-62 -13 -133 -31 -157 -42 -24 -10 -47 -19 -51 -19 -5 0
-21 24 -38 53 -16 28 -51 76 -77 105 -65 73 -88 71 -154 -8z m166 -219 c13
-33 18 -74 18 -141 0 -102 -15 -151 -73 -234 l-26 -38 -33 37 c-43 50 -74 134
-80 217 -7 85 22 186 73 252 l36 48 34 -47 c18 -26 41 -68 51 -94z m-442 8
c22 -6 61 -20 88 -31 l47 -20 0 -85 c0 -88 18 -169 51 -235 23 -46 15 -48 -59
-13 -117 55 -200 179 -209 317 -6 77 -6 78 18 78 13 0 42 -5 64 -11z m795 -42
c0 -104 -56 -228 -131 -291 -35 -30 -124 -76 -147 -76 -8 0 -4 16 13 49 33 67
47 131 47 224 0 91 6 98 111 128 103 29 107 28 107 -34z"/>
<path d="M3037 5328 c-37 -183 -67 -339 -67 -345 0 -8 14 -13 34 -13 40 0 28
-40 96 315 22 116 44 218 48 229 6 14 40 -49 142 -263 l135 -281 37 0 c26 0
38 5 42 18 3 9 32 157 66 327 34 171 63 318 66 328 4 14 -1 17 -33 17 l-38 0
-54 -272 c-30 -150 -57 -279 -61 -286 -3 -7 -62 107 -138 270 l-131 283 -39 3
-39 3 -66 -333z"/>
<path d="M4350 5551 c-20 -6 -27 -16 -35 -56 -10 -44 -15 -51 -48 -64 -43 -16
-53 -51 -14 -51 13 0 26 -2 29 -5 3 -3 -7 -65 -23 -138 -46 -213 -37 -262 48
-274 31 -4 54 1 98 21 54 24 57 28 50 53 -9 37 -8 37 -46 14 -46 -28 -87 -27
-100 2 -7 17 -2 57 21 167 17 80 34 148 38 152 4 4 36 8 71 10 61 3 65 5 72
31 l7 27 -70 0 -70 0 7 38 c3 20 9 47 12 60 6 23 -2 26 -47 13z"/>
<path d="M3867 5436 c-57 -21 -104 -62 -137 -119 -67 -117 -63 -238 11 -309
126 -121 347 7 374 217 21 158 -102 263 -248 211z m124 -66 c44 -24 61 -110
39 -191 -23 -84 -94 -149 -162 -149 -52 0 -77 15 -94 55 -39 93 4 223 90 276
34 21 96 25 127 9z"/>
<path d="M4746 5435 c-134 -47 -226 -265 -166 -390 37 -77 113 -101 216 -70
70 22 87 37 80 73 l-7 29 -46 -24 c-98 -49 -183 -19 -183 65 0 39 1 40 48 52
75 18 167 67 201 105 33 38 42 96 21 135 -20 37 -96 49 -164 25z m94 -70 c18
-22 3 -53 -42 -85 -39 -29 -135 -66 -144 -57 -11 10 47 106 78 131 37 29 89
34 108 11z"/>
<path d="M5113 5443 c-35 -5 -27 21 -97 -311 l-34 -163 36 3 36 3 26 115 c27
125 49 169 110 223 92 84 160 89 160 12 0 -24 -39 -226 -65 -333 -5 -22 -3
-23 32 -20 l37 3 39 185 c42 202 42 237 0 270 -50 39 -134 16 -219 -62 -43
-39 -47 -41 -41 -18 10 46 19 100 16 98 -2 0 -18 -3 -36 -5z"/>
<path d="M5640 5442 c-14 -2 -28 -7 -33 -11 -4 -4 -29 -109 -55 -234 l-48
-227 36 0 36 0 23 113 c13 61 30 124 37 139 35 68 138 158 181 158 47 0 49
-32 9 -222 -20 -95 -36 -177 -36 -181 0 -9 70 -9 70 1 1 4 11 55 24 114 26
118 56 178 112 227 79 70 135 77 142 18 3 -22 -38 -238 -65 -344 -5 -21 -1
-23 30 -23 41 0 35 -16 78 185 42 196 43 239 6 271 -15 13 -40 24 -55 24 -41
-1 -106 -34 -156 -81 l-46 -42 0 37 c0 26 -7 44 -25 61 -44 45 -120 28 -198
-44 -24 -23 -47 -41 -50 -41 -2 0 -1 19 4 42 13 54 9 64 -21 60z"/>
<path d="M6530 5441 c-78 -25 -150 -93 -190 -179 -29 -60 -45 -156 -36 -206
21 -111 135 -125 237 -29 l49 46 0 -41 c0 -64 6 -71 44 -60 32 10 33 11 28 58
-3 32 8 107 33 224 20 98 35 179 33 181 -8 8 -175 14 -198 6z m117 -65 c7 -7
-31 -154 -50 -191 -61 -122 -175 -195 -208 -133 -18 34 -6 136 24 194 49 97
120 149 192 139 21 -3 41 -7 42 -9z"/>
<path d="M6930 5443 c-14 -3 -29 -8 -33 -12 -7 -7 -97 -419 -97 -447 0 -9 11
-14 33 -14 l33 0 18 88 c29 142 35 158 77 212 45 57 120 110 156 110 12 0 29
-10 37 -22 13 -21 11 -41 -23 -206 l-38 -183 36 3 36 3 37 170 c46 215 47 238
9 276 -51 51 -135 31 -227 -53 -26 -24 -45 -36 -42 -27 8 21 21 109 17 108 -2
-1 -15 -4 -29 -6z"/>
<path d="M7537 5436 c-111 -41 -199 -167 -214 -306 -7 -75 10 -126 51 -151 17
-10 41 -19 54 -19 39 0 95 29 140 73 l42 41 0 -41 c0 -65 6 -72 44 -61 32 10
33 11 28 58 -3 32 8 107 33 224 20 98 35 179 33 181 -2 2 -41 6 -88 9 -61 5
-96 2 -123 -8z m130 -60 c7 -7 -31 -154 -50 -191 -61 -122 -175 -195 -208
-133 -18 34 -6 136 24 194 49 97 120 149 192 139 21 -3 41 -7 42 -9z"/>
<path d="M8050 5441 c-78 -25 -150 -93 -190 -179 -28 -59 -45 -156 -36 -203
21 -115 133 -130 237 -32 l48 45 -5 -39 c-28 -201 -55 -243 -157 -243 -69 0
-90 35 -62 103 6 14 2 17 -23 17 -37 0 -52 -18 -59 -70 -5 -33 -2 -45 17 -65
62 -66 202 -58 272 16 43 45 62 100 84 244 8 55 29 166 46 248 17 81 29 149
27 152 -9 8 -176 14 -199 6z m108 -59 c15 -10 -10 -136 -41 -197 -61 -122
-175 -195 -208 -133 -18 34 -6 136 24 194 28 55 105 130 140 137 38 7 72 7 85
-1z"/>
<path d="M8526 5440 c-39 -12 -98 -55 -123 -88 -48 -66 -66 -116 -70 -197 -5
-90 11 -133 60 -169 40 -30 146 -29 204 2 50 26 53 30 46 64 l-5 26 -46 -24
c-63 -34 -136 -31 -164 6 -10 14 -21 41 -24 61 l-6 35 53 13 c149 38 239 111
239 193 0 65 -82 104 -164 78z m81 -76 c11 -29 -11 -68 -52 -91 -55 -31 -124
-57 -132 -50 -12 13 30 88 69 122 43 39 103 49 115 19z"/>
<path d="M9014 5440 c-11 -4 -42 -32 -69 -62 -43 -48 -47 -50 -41 -24 21 88
21 86 -13 86 -41 0 -41 -1 -91 -245 -23 -110 -43 -206 -46 -213 -3 -10 6 -12
33 -10 l37 3 26 115 c21 96 32 125 68 178 49 71 83 97 126 97 26 0 31 4 37 35
4 19 5 38 3 42 -7 10 -43 9 -70 -2z"/>
<path d="M4008 4209 c-25 -14 -24 -65 1 -79 11 -5 24 -10 30 -10 16 0 41 30
41 50 0 21 -25 50 -43 50 -7 0 -20 -5 -29 -11z"/>
<path d="M4720 4135 l0 -85 -34 16 c-89 43 -186 -35 -186 -148 0 -134 81 -201
180 -149 49 26 46 25 53 1 3 -14 14 -20 31 -20 l26 0 0 235 0 235 -35 0 -35 0
0 -85z m-19 -125 c16 -9 19 -22 19 -90 0 -70 -2 -81 -22 -94 -30 -21 -81 -20
-100 2 -35 39 -33 132 3 171 21 23 68 28 100 11z"/>
<path d="M5546 4198 c-21 -29 -20 -41 2 -61 26 -24 49 -21 68 8 15 23 15 27 0
50 -20 31 -50 32 -70 3z"/>
<path d="M6010 3985 l0 -235 35 0 35 0 0 119 c0 113 1 121 22 135 29 21 82 20
99 -1 10 -11 15 -53 18 -135 l3 -118 34 0 34 0 0 108 c0 135 -11 177 -53 202
-41 25 -73 25 -120 0 l-37 -20 0 90 0 90 -35 0 -35 0 0 -235z"/>
<path d="M6628 4209 c-28 -16 -23 -67 7 -81 21 -9 28 -8 45 7 25 23 26 47 2
68 -21 19 -30 20 -54 6z"/>
<path d="M8180 4135 l0 -85 -34 16 c-89 43 -186 -35 -186 -148 0 -134 81 -201
180 -149 49 26 46 25 53 1 3 -14 14 -20 31 -20 l26 0 0 235 0 235 -35 0 -35 0
0 -85z m-19 -125 c16 -9 19 -22 19 -90 0 -70 -2 -81 -22 -94 -30 -21 -81 -20
-100 2 -35 39 -33 132 3 171 21 23 68 28 100 11z"/>
<path d="M8736 4204 c-9 -8 -16 -24 -16 -34 0 -20 25 -50 41 -50 27 0 49 22
49 50 0 44 -44 64 -74 34z"/>
<path d="M9200 3985 l0 -235 35 0 35 0 0 119 c0 113 1 121 22 135 27 19 79 21
96 4 8 -8 12 -53 12 -135 l0 -123 35 0 35 0 0 125 c0 139 -10 173 -55 193 -36
17 -65 15 -108 -7 l-37 -19 0 89 0 89 -35 0 -35 0 0 -235z"/>
<path d="M9807 4202 c-22 -25 -21 -45 3 -67 17 -15 24 -16 45 -7 44 20 27 92
-23 92 -5 0 -16 -8 -25 -18z"/>
<path d="M1810 3981 l0 -231 30 0 30 0 0 161 c0 92 4 158 9 155 5 -3 64 -76
131 -161 107 -136 125 -155 151 -155 l29 0 0 230 0 230 -35 0 -35 0 -2 -162
-3 -163 -125 160 c-101 128 -131 161 -153 163 l-27 3 0 -230z"/>
<path d="M2676 4172 c-3 -5 -8 -28 -12 -51 -6 -36 -11 -43 -36 -48 -22 -4 -28
-10 -26 -27 2 -13 12 -22 26 -24 21 -3 22 -7 22 -102 0 -55 5 -110 11 -123 20
-43 77 -58 132 -34 26 11 27 13 12 34 -10 14 -22 19 -35 16 -40 -11 -50 13
-50 113 l0 94 45 0 c43 0 45 1 45 30 0 29 -2 30 -45 30 l-45 0 0 50 c0 43 -3
50 -19 50 -11 0 -22 -4 -25 -8z"/>
<path d="M6406 4172 c-3 -5 -8 -28 -12 -51 -6 -36 -11 -43 -36 -48 -22 -4 -28
-10 -26 -27 2 -13 12 -22 26 -24 21 -3 22 -7 22 -102 0 -55 5 -110 11 -123 20
-43 77 -58 132 -34 26 11 27 13 13 33 -11 16 -22 20 -42 16 -37 -7 -44 10 -44
116 l0 92 80 0 80 0 0 -135 0 -135 35 0 35 0 0 165 0 165 -115 0 -115 0 0 50
c0 43 -3 50 -19 50 -11 0 -22 -4 -25 -8z"/>
<path d="M9585 4143 c-8 -51 -18 -67 -44 -71 -15 -2 -21 -10 -21 -28 0 -19 5
-24 25 -24 l25 0 0 -109 c0 -137 11 -156 89 -156 57 0 78 14 63 41 -6 11 -22
18 -43 18 l-34 1 -3 103 -3 102 81 0 80 0 0 -135 0 -135 35 0 35 0 0 165 0
165 -115 0 -115 0 0 50 c0 46 -2 50 -25 50 -20 0 -25 -6 -30 -37z"/>
<path d="M2356 4070 c-63 -19 -96 -73 -96 -157 0 -96 45 -149 136 -159 100
-11 174 58 174 161 0 69 -26 115 -80 143 -46 23 -85 26 -134 12z m113 -69 c41
-41 35 -157 -9 -181 -30 -16 -76 -12 -101 9 -21 17 -24 28 -24 86 0 58 3 69
24 86 30 25 85 25 110 0z"/>
<path d="M2931 4058 c-79 -41 -106 -146 -59 -229 23 -41 85 -79 129 -79 37 0
95 19 119 38 21 17 21 18 2 35 -17 16 -22 16 -48 2 -66 -34 -133 -9 -149 58
l-7 27 111 0 111 0 0 38 c0 41 -28 95 -59 111 -44 24 -104 23 -150 -1z m129
-58 c34 -34 24 -40 -61 -40 -84 0 -86 2 -51 43 21 24 86 23 112 -3z"/>
<path d="M3200 3915 l0 -165 35 0 35 0 0 114 c0 112 1 115 26 135 32 25 76 27
98 5 13 -12 16 -40 16 -135 l0 -119 36 0 36 0 -4 134 c-3 126 -5 136 -27 160
-41 43 -90 43 -173 -2 -3 -1 -9 6 -13 17 -4 15 -15 21 -36 21 l-29 0 0 -165z"/>
<path d="M3764 4066 c-98 -44 -79 -136 36 -174 46 -16 56 -23 58 -45 3 -21 -2
-28 -23 -33 -14 -3 -35 -4 -48 -1 -71 18 -72 18 -85 -3 -12 -19 -9 -22 30 -40
51 -23 87 -25 132 -6 96 40 84 147 -21 175 -58 16 -81 36 -67 58 13 22 55 28
94 15 23 -9 31 -7 45 8 16 17 15 19 -7 34 -35 23 -107 29 -144 12z"/>
<path d="M4000 3915 l0 -165 35 0 35 0 0 165 0 165 -35 0 -35 0 0 -165z"/>
<path d="M4160 3915 l0 -165 35 0 35 0 0 119 c0 113 1 121 22 135 29 21 82 20
99 -1 10 -11 15 -53 18 -135 l3 -118 34 0 34 0 0 108 c0 135 -11 177 -53 202
-41 25 -73 25 -122 0 -22 -11 -40 -20 -41 -20 -1 0 -4 9 -7 20 -3 14 -14 20
-31 20 l-26 0 0 -165z"/>
<path d="M5005 4058 c4 -13 27 -87 52 -165 l45 -143 33 0 34 0 36 115 c20 63
38 115 40 115 2 0 20 -52 40 -115 l36 -115 34 0 33 0 45 143 c25 78 48 152 52
165 6 19 3 22 -24 22 -37 0 -41 -7 -76 -138 -16 -57 -31 -99 -35 -95 -4 4 -19
53 -35 108 -33 116 -39 127 -74 123 -23 -3 -29 -13 -58 -108 -18 -58 -36 -112
-39 -120 -4 -8 -21 39 -38 105 l-32 120 -38 3 c-35 3 -37 2 -31 -20z"/>
<path d="M5540 3915 l0 -165 40 0 40 0 0 165 0 165 -40 0 -40 0 0 -165z"/>
<path d="M5780 4069 c-131 -55 -126 -266 7 -310 39 -13 95 -5 136 19 31 19 31
20 12 46 -13 17 -15 17 -37 2 -34 -24 -85 -20 -113 9 -21 20 -25 34 -25 80 0
93 48 123 147 90 16 -5 24 -2 32 13 9 17 6 23 -15 37 -31 20 -111 28 -144 14z"/>
<path d="M6823 4066 c-34 -16 -63 -61 -63 -99 0 -13 11 -40 24 -60 24 -35 24
-36 5 -53 -23 -21 -25 -47 -4 -64 13 -11 11 -15 -10 -32 -50 -39 -22 -97 57
-119 85 -22 175 7 203 68 32 66 -20 111 -130 113 -27 0 -56 4 -64 9 -22 14 -3
31 35 31 79 0 134 46 134 111 0 28 5 38 20 42 11 3 20 14 20 25 0 17 -9 21
-57 26 -32 3 -76 8 -98 11 -24 3 -53 -1 -72 -9z m111 -62 c36 -36 6 -94 -49
-94 -37 0 -57 19 -57 55 0 14 5 32 12 40 16 20 74 19 94 -1z m30 -250 c22 -8
20 -41 -3 -54 -11 -5 -41 -10 -66 -10 -72 0 -105 26 -73 58 12 12 114 17 142
6z"/>
<path d="M7260 3951 c0 -124 1 -131 26 -160 34 -40 84 -50 133 -25 20 10 39
20 43 22 3 2 9 -6 13 -17 4 -15 15 -21 36 -21 l29 0 0 165 0 165 -35 0 -35 0
0 -112 c0 -62 -4 -118 -8 -124 -11 -17 -48 -34 -75 -34 -47 0 -57 26 -57 153
l0 117 -35 0 -35 0 0 -129z"/>
<path d="M7620 3915 l0 -165 35 0 35 0 0 119 c0 113 1 121 22 135 29 21 82 20
99 -1 10 -11 15 -53 18 -135 l3 -118 34 0 34 0 0 108 c0 135 -11 177 -53 202
-41 25 -73 25 -122 0 -22 -11 -40 -20 -41 -20 -1 0 -4 9 -7 20 -3 14 -14 20
-31 20 l-26 0 0 -165z"/>
<path d="M8490 3915 l0 -165 35 0 35 0 0 99 c0 84 3 102 21 125 16 20 29 26
60 26 39 0 39 0 39 40 0 34 -3 40 -21 40 -26 0 -59 -18 -81 -44 -17 -21 -17
-21 -24 12 -5 27 -11 32 -35 32 l-29 0 0 -165z"/>
<path d="M8730 3915 l0 -165 35 0 35 0 0 165 0 165 -35 0 -35 0 0 -165z"/>
<path d="M8952 4060 c-121 -55 -103 -264 26 -305 36 -11 107 3 137 27 25 19
25 21 9 39 -16 18 -19 18 -41 4 -37 -25 -92 -16 -117 18 -30 41 -28 118 4 152
26 27 75 34 112 14 16 -8 24 -8 35 4 19 19 9 35 -33 53 -45 19 -81 17 -132 -6z"/>
<path d="M10014 4066 c-66 -30 -85 -109 -40 -163 24 -28 24 -29 5 -41 -21 -13
-26 -66 -8 -78 8 -5 4 -13 -11 -24 -54 -41 -10 -113 77 -126 101 -15 193 38
193 111 0 47 -29 64 -126 73 -64 6 -79 10 -82 25 -3 14 4 17 38 17 86 0 148
54 138 121 -4 22 0 29 16 31 13 2 22 12 24 24 3 19 -3 22 -55 28 -32 3 -76 8
-98 11 -24 3 -53 -1 -71 -9z m113 -72 c15 -24 15 -29 2 -53 -20 -36 -80 -42
-103 -9 -20 29 -20 47 1 70 25 28 79 24 100 -8z m34 -250 c11 -14 10 -19 -10
-36 -19 -14 -37 -18 -79 -16 -58 3 -81 20 -69 52 9 23 139 23 158 0z"/>
</g>
</svg>
